<mxfile host="app.diagrams.net" modified="2021-12-19T14:08:44.833Z" agent="5.0 (X11; Linux x86_64) AppleWebKit/537.36 (KHTML, like Gecko) Chrome/96.0.4664.110 Safari/537.36" etag="6IgRAXok7MwiCKlBJZWp" version="16.0.0" type="github">
  <diagram name="Page-1" id="e7e014a7-5840-1c2e-5031-d8a46d1fe8dd">
    <mxGraphModel dx="1350" dy="925" grid="1" gridSize="10" guides="1" tooltips="1" connect="1" arrows="1" fold="1" page="1" pageScale="1" pageWidth="1169" pageHeight="826" background="none" math="0" shadow="1">
      <root>
        <mxCell id="0" />
        <mxCell id="1" parent="0" />
        <mxCell id="3" value="Thread 2" style="swimlane;whiteSpace=wrap;strokeColor=#000000;" parent="1" vertex="1">
          <mxGeometry x="560" y="20" width="280" height="530" as="geometry" />
        </mxCell>
        <mxCell id="IZ_L9Osw-Pexkq-K0pFs-16" style="edgeStyle=orthogonalEdgeStyle;rounded=0;orthogonalLoop=1;jettySize=auto;html=1;entryX=0.5;entryY=0;entryDx=0;entryDy=0;" edge="1" parent="3" source="13" target="xOOWta2H1G1LAFOARg2k-72">
          <mxGeometry relative="1" as="geometry" />
        </mxCell>
        <mxCell id="13" value="" style="ellipse;shape=startState;fillColor=#000000;strokeColor=#ff0000;" parent="3" vertex="1">
          <mxGeometry x="107.87" y="30" width="30" height="30" as="geometry" />
        </mxCell>
        <mxCell id="IZ_L9Osw-Pexkq-K0pFs-18" style="edgeStyle=orthogonalEdgeStyle;rounded=0;orthogonalLoop=1;jettySize=auto;html=1;entryX=0.5;entryY=0;entryDx=0;entryDy=0;" edge="1" parent="3" source="xOOWta2H1G1LAFOARg2k-68" target="IZ_L9Osw-Pexkq-K0pFs-15">
          <mxGeometry relative="1" as="geometry" />
        </mxCell>
        <mxCell id="xOOWta2H1G1LAFOARg2k-68" value="exitFlag" style="rhombus;whiteSpace=wrap;html=1;" parent="3" vertex="1">
          <mxGeometry x="83" y="164" width="80" height="60" as="geometry" />
        </mxCell>
        <mxCell id="IZ_L9Osw-Pexkq-K0pFs-17" style="edgeStyle=orthogonalEdgeStyle;rounded=0;orthogonalLoop=1;jettySize=auto;html=1;entryX=0.5;entryY=0;entryDx=0;entryDy=0;" edge="1" parent="3" source="xOOWta2H1G1LAFOARg2k-72" target="xOOWta2H1G1LAFOARg2k-68">
          <mxGeometry relative="1" as="geometry" />
        </mxCell>
        <mxCell id="xOOWta2H1G1LAFOARg2k-72" value="Idle" style="ellipse;whiteSpace=wrap;html=1;" parent="3" vertex="1">
          <mxGeometry x="85.75" y="100" width="74.25" height="35" as="geometry" />
        </mxCell>
        <mxCell id="IZ_L9Osw-Pexkq-K0pFs-26" style="edgeStyle=orthogonalEdgeStyle;rounded=0;orthogonalLoop=1;jettySize=auto;html=1;entryX=0;entryY=0.5;entryDx=0;entryDy=0;" edge="1" parent="3" source="xOOWta2H1G1LAFOARg2k-73" target="xOOWta2H1G1LAFOARg2k-72">
          <mxGeometry relative="1" as="geometry">
            <Array as="points">
              <mxPoint x="60" y="460" />
              <mxPoint x="60" y="118" />
            </Array>
          </mxGeometry>
        </mxCell>
        <mxCell id="xOOWta2H1G1LAFOARg2k-73" value="add the Product to Belt" style="ellipse;whiteSpace=wrap;html=1;" parent="3" vertex="1">
          <mxGeometry x="74.44000000000001" y="430" width="98.57" height="60" as="geometry" />
        </mxCell>
        <mxCell id="IZ_L9Osw-Pexkq-K0pFs-25" style="edgeStyle=orthogonalEdgeStyle;rounded=0;orthogonalLoop=1;jettySize=auto;html=1;" edge="1" parent="3" source="xOOWta2H1G1LAFOARg2k-79" target="xOOWta2H1G1LAFOARg2k-73">
          <mxGeometry relative="1" as="geometry" />
        </mxCell>
        <mxCell id="xOOWta2H1G1LAFOARg2k-79" value="create a Product" style="ellipse;whiteSpace=wrap;html=1;" parent="3" vertex="1">
          <mxGeometry x="84" y="362" width="77.75" height="35" as="geometry" />
        </mxCell>
        <mxCell id="IZ_L9Osw-Pexkq-K0pFs-23" style="edgeStyle=orthogonalEdgeStyle;rounded=0;orthogonalLoop=1;jettySize=auto;html=1;entryX=1;entryY=0.5;entryDx=0;entryDy=0;exitX=1;exitY=0.5;exitDx=0;exitDy=0;" edge="1" parent="3" source="IZ_L9Osw-Pexkq-K0pFs-15" target="xOOWta2H1G1LAFOARg2k-72">
          <mxGeometry relative="1" as="geometry">
            <Array as="points">
              <mxPoint x="210" y="291" />
              <mxPoint x="210" y="118" />
            </Array>
          </mxGeometry>
        </mxCell>
        <mxCell id="IZ_L9Osw-Pexkq-K0pFs-27" value="No" style="edgeLabel;html=1;align=center;verticalAlign=middle;resizable=0;points=[];" vertex="1" connectable="0" parent="IZ_L9Osw-Pexkq-K0pFs-23">
          <mxGeometry x="0.1028" y="-4" relative="1" as="geometry">
            <mxPoint x="-25" y="96" as="offset" />
          </mxGeometry>
        </mxCell>
        <mxCell id="IZ_L9Osw-Pexkq-K0pFs-24" style="edgeStyle=orthogonalEdgeStyle;rounded=0;orthogonalLoop=1;jettySize=auto;html=1;entryX=0.5;entryY=0;entryDx=0;entryDy=0;" edge="1" parent="3" source="IZ_L9Osw-Pexkq-K0pFs-15" target="xOOWta2H1G1LAFOARg2k-79">
          <mxGeometry relative="1" as="geometry" />
        </mxCell>
        <mxCell id="IZ_L9Osw-Pexkq-K0pFs-15" value="belt.isEmpty()" style="rhombus;whiteSpace=wrap;html=1;" vertex="1" parent="3">
          <mxGeometry x="74.44" y="253.5" width="97.12" height="75" as="geometry" />
        </mxCell>
        <mxCell id="xOOWta2H1G1LAFOARg2k-67" value="Belt Object" style="rounded=1;whiteSpace=wrap;html=1;" parent="3" vertex="1">
          <mxGeometry x="-30" y="46" width="92" height="34" as="geometry" />
        </mxCell>
        <mxCell id="2" value="Thread 1" style="swimlane;whiteSpace=wrap" parent="1" vertex="1">
          <mxGeometry x="70" y="20" width="490" height="800" as="geometry" />
        </mxCell>
        <mxCell id="5" value="" style="ellipse;shape=startState;fillColor=#000000;strokeColor=#ff0000;" parent="2" vertex="1">
          <mxGeometry x="101.25" y="35" width="30" height="30" as="geometry" />
        </mxCell>
        <mxCell id="xOOWta2H1G1LAFOARg2k-70" value="Create a Belt" style="ellipse;whiteSpace=wrap;html=1;" parent="2" vertex="1">
          <mxGeometry x="75" y="80" width="82.5" height="44" as="geometry" />
        </mxCell>
        <mxCell id="xOOWta2H1G1LAFOARg2k-71" value="Create an Agent" style="ellipse;whiteSpace=wrap;html=1;" parent="2" vertex="1">
          <mxGeometry x="67.5" y="140" width="97.5" height="46" as="geometry" />
        </mxCell>
        <mxCell id="IZ_L9Osw-Pexkq-K0pFs-32" value="eoisodeFinished()" style="rhombus;whiteSpace=wrap;html=1;" vertex="1" parent="2">
          <mxGeometry x="53.75" y="200" width="125" height="60" as="geometry" />
        </mxCell>
        <mxCell id="IZ_L9Osw-Pexkq-K0pFs-33" value="Idle" style="ellipse;whiteSpace=wrap;html=1;" vertex="1" parent="2">
          <mxGeometry x="75" y="280" width="78.75" height="40" as="geometry" />
        </mxCell>
        <mxCell id="IZ_L9Osw-Pexkq-K0pFs-38" value="getStateFeatures" style="ellipse;whiteSpace=wrap;html=1;" vertex="1" parent="2">
          <mxGeometry x="66.26" y="350" width="103.74" height="40" as="geometry" />
        </mxCell>
        <mxCell id="IZ_L9Osw-Pexkq-K0pFs-39" value="adjust epsilon" style="ellipse;whiteSpace=wrap;html=1;" vertex="1" parent="2">
          <mxGeometry x="64.36999999999999" y="410" width="103.75" height="40" as="geometry" />
        </mxCell>
        <mxCell id="IZ_L9Osw-Pexkq-K0pFs-40" value="choose action considering epsilon" style="ellipse;whiteSpace=wrap;html=1;" vertex="1" parent="2">
          <mxGeometry x="55" y="480" width="126.25" height="50" as="geometry" />
        </mxCell>
        <mxCell id="IZ_L9Osw-Pexkq-K0pFs-41" value="determine next state" style="ellipse;whiteSpace=wrap;html=1;" vertex="1" parent="2">
          <mxGeometry x="55" y="560" width="126.25" height="50" as="geometry" />
        </mxCell>
        <mxCell id="IZ_L9Osw-Pexkq-K0pFs-42" value="calculate step reward" style="ellipse;whiteSpace=wrap;html=1;" vertex="1" parent="2">
          <mxGeometry x="60.940000000000005" y="630" width="114.37" height="50" as="geometry" />
        </mxCell>
        <mxCell id="IZ_L9Osw-Pexkq-K0pFs-43" value="store the (state,action,reward,next_state) in the buffer memory" style="ellipse;whiteSpace=wrap;html=1;" vertex="1" parent="2">
          <mxGeometry x="24.379999999999992" y="707.5" width="180" height="75" as="geometry" />
        </mxCell>
        <mxCell id="IZ_L9Osw-Pexkq-K0pFs-44" value="has enough samples?" style="rhombus;whiteSpace=wrap;html=1;" vertex="1" parent="2">
          <mxGeometry x="233" y="702.5" width="105" height="80" as="geometry" />
        </mxCell>
        <mxCell id="IZ_L9Osw-Pexkq-K0pFs-54" style="edgeStyle=orthogonalEdgeStyle;rounded=0;orthogonalLoop=1;jettySize=auto;html=1;entryX=0.75;entryY=0.5;entryDx=0;entryDy=0;entryPerimeter=0;strokeColor=#000000;" edge="1" parent="2" source="IZ_L9Osw-Pexkq-K0pFs-45" target="IZ_L9Osw-Pexkq-K0pFs-48">
          <mxGeometry relative="1" as="geometry" />
        </mxCell>
        <mxCell id="IZ_L9Osw-Pexkq-K0pFs-45" value="is smaple count dividable by C?" style="rhombus;whiteSpace=wrap;html=1;" vertex="1" parent="2">
          <mxGeometry x="216" y="600" width="135" height="90" as="geometry" />
        </mxCell>
        <mxCell id="IZ_L9Osw-Pexkq-K0pFs-53" style="edgeStyle=orthogonalEdgeStyle;rounded=0;orthogonalLoop=1;jettySize=auto;html=1;entryX=0.25;entryY=0.5;entryDx=0;entryDy=0;entryPerimeter=0;strokeColor=#000000;" edge="1" parent="2" source="IZ_L9Osw-Pexkq-K0pFs-46" target="IZ_L9Osw-Pexkq-K0pFs-48">
          <mxGeometry relative="1" as="geometry" />
        </mxCell>
        <mxCell id="IZ_L9Osw-Pexkq-K0pFs-46" value="copy action_net to target_net" style="rounded=1;whiteSpace=wrap;html=1;" vertex="1" parent="2">
          <mxGeometry x="380" y="625" width="100" height="40" as="geometry" />
        </mxCell>
        <mxCell id="IZ_L9Osw-Pexkq-K0pFs-52" value="" style="group" vertex="1" connectable="0" parent="2">
          <mxGeometry x="251.64" y="515" width="172.36" height="38" as="geometry" />
        </mxCell>
        <mxCell id="IZ_L9Osw-Pexkq-K0pFs-48" value="" style="shape=line;html=1;strokeWidth=6;strokeColor=#000000;rotation=-180;flipH=0;flipV=0;" vertex="1" parent="IZ_L9Osw-Pexkq-K0pFs-52">
          <mxGeometry y="28" width="172.36" height="10" as="geometry" />
        </mxCell>
        <mxCell id="IZ_L9Osw-Pexkq-K0pFs-49" value="" style="edgeStyle=orthogonalEdgeStyle;html=1;verticalAlign=bottom;endArrow=open;endSize=8;strokeColor=#000000;rounded=0;entryX=0.5;entryY=1;entryDx=0;entryDy=0;" edge="1" parent="IZ_L9Osw-Pexkq-K0pFs-52" target="IZ_L9Osw-Pexkq-K0pFs-55">
          <mxGeometry relative="1" as="geometry">
            <mxPoint x="86.18" as="targetPoint" />
            <mxPoint x="86.17999999999985" y="29" as="sourcePoint" />
            <Array as="points" />
          </mxGeometry>
        </mxCell>
        <mxCell id="IZ_L9Osw-Pexkq-K0pFs-68" style="edgeStyle=orthogonalEdgeStyle;rounded=0;orthogonalLoop=1;jettySize=auto;html=1;entryX=0.499;entryY=0.4;entryDx=0;entryDy=0;entryPerimeter=0;strokeColor=#000000;" edge="1" parent="2" source="IZ_L9Osw-Pexkq-K0pFs-55" target="IZ_L9Osw-Pexkq-K0pFs-60">
          <mxGeometry relative="1" as="geometry" />
        </mxCell>
        <mxCell id="IZ_L9Osw-Pexkq-K0pFs-55" value="select a random sample batch from buffer" style="ellipse;whiteSpace=wrap;html=1;strokeColor=#000000;" vertex="1" parent="2">
          <mxGeometry x="276.73" y="430" width="122.18" height="70" as="geometry" />
        </mxCell>
        <mxCell id="IZ_L9Osw-Pexkq-K0pFs-75" style="edgeStyle=orthogonalEdgeStyle;rounded=0;orthogonalLoop=1;jettySize=auto;html=1;exitX=0.25;exitY=0.5;exitDx=0;exitDy=0;exitPerimeter=0;entryX=0.5;entryY=1;entryDx=0;entryDy=0;strokeColor=#000000;" edge="1" parent="2" source="IZ_L9Osw-Pexkq-K0pFs-60" target="IZ_L9Osw-Pexkq-K0pFs-65">
          <mxGeometry relative="1" as="geometry" />
        </mxCell>
        <mxCell id="IZ_L9Osw-Pexkq-K0pFs-76" style="edgeStyle=orthogonalEdgeStyle;rounded=0;orthogonalLoop=1;jettySize=auto;html=1;exitX=0.75;exitY=0.5;exitDx=0;exitDy=0;exitPerimeter=0;entryX=0.5;entryY=1;entryDx=0;entryDy=0;strokeColor=#000000;" edge="1" parent="2" source="IZ_L9Osw-Pexkq-K0pFs-60" target="IZ_L9Osw-Pexkq-K0pFs-67">
          <mxGeometry relative="1" as="geometry" />
        </mxCell>
        <mxCell id="IZ_L9Osw-Pexkq-K0pFs-60" value="" style="shape=line;html=1;strokeWidth=6;strokeColor=#000000;rotation=-180;flipH=0;flipV=0;" vertex="1" parent="2">
          <mxGeometry x="251.64" y="400" width="172.36" height="10" as="geometry" />
        </mxCell>
        <mxCell id="IZ_L9Osw-Pexkq-K0pFs-65" value="derermine state Q values using act_net" style="ellipse;whiteSpace=wrap;html=1;strokeColor=#000000;" vertex="1" parent="2">
          <mxGeometry x="387.5" y="290" width="85" height="67.5" as="geometry" />
        </mxCell>
        <mxCell id="IZ_L9Osw-Pexkq-K0pFs-66" value="&lt;span&gt;derermine next_state Q values using target_net&lt;/span&gt;" style="ellipse;whiteSpace=wrap;html=1;strokeColor=#000000;" vertex="1" parent="2">
          <mxGeometry x="296" y="290" width="84" height="67.5" as="geometry" />
        </mxCell>
        <mxCell id="IZ_L9Osw-Pexkq-K0pFs-67" value="fetch the intermediate action reward" style="ellipse;whiteSpace=wrap;html=1;strokeColor=#000000;" vertex="1" parent="2">
          <mxGeometry x="200" y="290" width="90" height="67.5" as="geometry" />
        </mxCell>
        <mxCell id="IZ_L9Osw-Pexkq-K0pFs-28" value="Yes" style="text;html=1;align=center;verticalAlign=middle;resizable=0;points=[];autosize=1;strokeColor=none;fillColor=none;" vertex="1" parent="1">
          <mxGeometry x="786" y="461" width="40" height="20" as="geometry" />
        </mxCell>
        <mxCell id="IZ_L9Osw-Pexkq-K0pFs-29" value="No" style="text;html=1;align=center;verticalAlign=middle;resizable=0;points=[];autosize=1;strokeColor=none;fillColor=none;" vertex="1" parent="1">
          <mxGeometry x="790" y="353" width="30" height="20" as="geometry" />
        </mxCell>
        <mxCell id="IZ_L9Osw-Pexkq-K0pFs-30" style="edgeStyle=orthogonalEdgeStyle;rounded=0;orthogonalLoop=1;jettySize=auto;html=1;entryX=0;entryY=0.5;entryDx=0;entryDy=0;exitX=1;exitY=0.5;exitDx=0;exitDy=0;" edge="1" parent="1" source="xOOWta2H1G1LAFOARg2k-70" target="xOOWta2H1G1LAFOARg2k-67">
          <mxGeometry relative="1" as="geometry">
            <mxPoint x="326.5" y="180" as="sourcePoint" />
            <Array as="points">
              <mxPoint x="250" y="122" />
              <mxPoint x="250" y="83" />
            </Array>
          </mxGeometry>
        </mxCell>
        <mxCell id="IZ_L9Osw-Pexkq-K0pFs-57" value="" style="shape=line;html=1;strokeWidth=6;strokeColor=#000000;rotation=-180;flipH=0;flipV=0;" vertex="1" parent="1">
          <mxGeometry x="332.64" y="202" width="172.36" height="10" as="geometry" />
        </mxCell>
        <mxCell id="IZ_L9Osw-Pexkq-K0pFs-58" value="" style="edgeStyle=orthogonalEdgeStyle;html=1;verticalAlign=bottom;endArrow=open;endSize=8;strokeColor=#000000;rounded=0;entryX=0.5;entryY=1;entryDx=0;entryDy=0;" edge="1" parent="1">
          <mxGeometry relative="1" as="geometry">
            <mxPoint x="417.82" y="174" as="targetPoint" />
            <mxPoint x="417.8199999999998" y="203" as="sourcePoint" />
            <Array as="points" />
          </mxGeometry>
        </mxCell>
        <mxCell id="IZ_L9Osw-Pexkq-K0pFs-74" value="" style="shape=line;html=1;strokeWidth=6;strokeColor=#000000;rotation=-180;flipH=0;flipV=0;" vertex="1" parent="1">
          <mxGeometry x="322.64" y="271" width="172.36" height="10" as="geometry" />
        </mxCell>
      </root>
    </mxGraphModel>
  </diagram>
</mxfile>
